<svg xmlns="http://www.w3.org/2000/svg" style="display: none;">
  
    <symbol id="icon-arrow-down" viewBox="0 0 512 512">
      <path d="m479 238c0 10-4 18-11 25l-186 187c-7 7-16 10-26 10-10 0-19-3-26-10l-186-187c-7-6-11-15-11-25 0-10 4-19 11-26l21-22c8-7 17-10 26-10 11 0 19 3 26 10l84 84 0-201c0-10 4-18 11-26 7-7 16-10 26-10l36 0c10 0 19 3 26 10 7 8 11 16 11 26l0 201 84-84c7-7 15-10 26-10 9 0 18 3 26 10l21 22c7 7 11 16 11 26z"/>
    </symbol>
  
    <symbol id="icon-arrows" viewBox="0 0 512 512">
      <path d="m512 256c0 5-2 9-5 13l-74 73c-3 4-7 5-12 5-5 0-10-1-13-5-4-4-6-8-6-13l0-36-109 0 0 109 36 0c5 0 9 2 13 6 4 3 5 8 5 13 0 5-1 9-5 12l-73 74c-4 3-8 5-13 5-5 0-9-2-13-5l-73-74c-4-3-5-7-5-12 0-5 1-10 5-13 4-4 8-6 13-6l36 0 0-109-109 0 0 36c0 5-2 9-6 13-3 4-8 5-13 5-5 0-9-1-12-5l-74-73c-3-4-5-8-5-13 0-5 2-9 5-13l74-73c3-4 7-5 12-5 5 0 10 1 13 5 4 4 6 8 6 13l0 36 109 0 0-109-36 0c-5 0-9-2-13-6-4-3-5-8-5-13 0-5 1-9 5-12l73-74c4-3 8-5 13-5 5 0 9 2 13 5l73 74c4 3 5 7 5 12 0 5-1 10-5 13-4 4-8 6-13 6l-36 0 0 109 109 0 0-36c0-5 2-9 6-13 3-4 8-5 13-5 5 0 9 1 12 5l74 73c3 4 5 8 5 13z"/>
    </symbol>
  
    <symbol id="icon-book" viewBox="0 0 512 512">
      <path d="m487 137c7 10 9 23 5 36l-79 259c-3 12-11 23-22 31-11 8-22 12-35 12l-263 0c-15 0-29-5-43-15-13-10-23-23-28-37-5-13-5-25-1-37 0 0 0-3 1-7 1-5 1-8 1-11 0-2 0-4-1-6 0-3-1-5-1-6 1-2 2-4 3-6 1-2 2-4 4-6 2-3 4-5 5-7 5-7 9-16 13-26 4-10 7-19 9-26 0-2 0-5-1-9 0-4 0-6 0-8 1-2 2-5 5-8 3-3 4-5 5-7 4-6 8-15 12-26 4-11 6-19 7-26 0-1 0-4-1-9 0-4 0-7 0-8 1-2 3-5 7-8 3-4 5-6 6-7 3-5 8-13 12-24 4-11 7-20 8-28 0-1 0-4-1-7-1-3-1-6-1-7 1-2 2-4 3-6 1-1 3-4 5-6 2-3 4-5 5-6 2-2 3-5 5-9 1-3 3-7 4-10 1-3 3-6 5-10 1-4 3-7 5-9 2-3 5-5 8-7 3-2 6-3 10-3 4 0 8 0 14 1l-1 1c8-2 12-2 15-2l217 0c14 0 25 5 33 16 7 10 9 23 5 37l-78 259c-7 22-14 37-21 43-6 7-19 10-36 10l-249 0c-5 0-8 2-11 5-2 3-2 7 0 12 5 13 18 20 41 20l264 0c6 0 11-2 16-5 5-3 8-6 10-11l86-282c1-5 2-10 1-17 7 3 13 7 17 13z m-304 0c-1 3-1 5 0 7 1 1 3 2 6 2l174 0c2 0 4-1 7-2 2-2 4-4 5-7l6-18c0-3 0-5-1-7-1-1-3-2-6-2l-173 0c-3 0-5 1-8 2-2 2-4 4-4 7z m-24 73c-1 3-1 5 0 7 2 2 3 2 6 2l174 0c2 0 5 0 7-2 3-2 4-4 5-7l6-18c1-2 0-5-1-6-1-2-3-3-5-3l-174 0c-3 0-5 1-7 3-3 1-4 4-5 6z"/>
    </symbol>
  
    <symbol id="icon-briefcase" viewBox="0 0 512 512">
      <path d="m183 73l146 0 0-36-146 0z m329 183l0 137c0 13-4 23-13 32-9 9-20 14-33 14l-420 0c-13 0-24-5-33-14-9-9-13-19-13-32l0-137 192 0 0 46c0 5 2 9 5 13 4 3 8 5 13 5l92 0c5 0 9-2 13-5 3-4 5-8 5-13l0-46z m-219 0l0 37-74 0 0-37z m219-137l0 110-512 0 0-110c0-13 4-23 13-32 9-9 20-14 33-14l100 0 0-46c0-7 3-14 8-19 6-5 12-8 20-8l164 0c8 0 14 3 20 8 5 5 8 12 8 19l0 46 100 0c13 0 24 5 33 14 9 9 13 19 13 32z"/>
    </symbol>
  
    <symbol id="icon-calendar" viewBox="0 0 512 512">
      <path d="m55 475l82 0 0-82-82 0z m100 0l92 0 0-82-92 0z m-100-100l82 0 0-92-82 0z m100 0l92 0 0-92-92 0z m-100-110l82 0 0-82-82 0z m210 210l92 0 0-82-92 0z m-110-210l92 0 0-82-92 0z m220 210l82 0 0-82-82 0z m-110-100l92 0 0-92-92 0z m-100-247l0-82c0-3-1-5-3-7-2-2-4-2-7-2l-18 0c-2 0-4 0-6 2-2 2-3 4-3 7l0 82c0 2 1 5 3 6 2 2 4 3 6 3l18 0c3 0 5-1 7-3 2-1 3-4 3-6z m210 247l82 0 0-92-82 0z m-110-110l92 0 0-82-92 0z m110 0l82 0 0-82-82 0z m9-137l0-82c0-3-1-5-3-7-2-2-4-2-6-2l-18 0c-3 0-5 0-7 2-2 2-3 4-3 7l0 82c0 2 1 5 3 6 2 2 4 3 7 3l18 0c2 0 4-1 6-3 2-1 3-4 3-6z m110-18l0 365c0 10-4 19-11 26-7 7-16 11-26 11l-402 0c-10 0-19-4-26-11-7-7-11-16-11-26l0-365c0-10 4-19 11-26 7-7 16-11 26-11l36 0 0-27c0-13 5-24 14-33 9-9 20-13 32-13l18 0c13 0 24 4 33 13 9 9 13 20 13 33l0 27 110 0 0-27c0-13 4-24 13-33 9-9 20-13 33-13l18 0c12 0 23 4 32 13 9 9 14 20 14 33l0 27 36 0c10 0 19 4 26 11 7 7 11 16 11 26z"/>
    </symbol>
  
    <symbol id="icon-cogs" viewBox="0 0 512 512">
      <path d="m238 256c0-20-7-37-22-52-14-14-31-21-51-21-21 0-38 7-52 21-14 15-22 32-22 52 0 20 8 37 22 52 14 14 31 21 52 21 20 0 37-7 51-21 15-15 22-32 22-52z m219 146c0-10-3-18-11-25-7-8-16-11-25-11-10 0-19 3-26 11-7 7-11 15-11 25 0 10 4 19 11 26 7 7 15 11 26 11 10 0 18-4 25-11 8-7 11-16 11-26z m0-292c0-10-3-19-11-26-7-7-16-11-25-11-10 0-19 4-26 11-7 7-11 16-11 26 0 10 4 18 11 26 7 7 15 10 26 10 10 0 18-3 25-10 8-8 11-16 11-26z m-110 120l0 53c0 2 0 4-2 5-1 2-2 3-4 3l-44 7c-3 7-6 14-10 22 7 9 15 20 26 33 1 2 2 4 2 6 0 2-1 4-2 5-4 6-12 14-23 26-12 11-19 17-23 17-2 0-4-1-6-2l-33-26c-7 3-14 6-22 9-2 20-4 35-6 44-2 5-4 7-9 7l-53 0c-2 0-4-1-6-2-1-2-2-3-3-5l-6-44c-7-2-14-5-22-9l-33 26c-2 1-4 2-6 2-2 0-4-1-6-3-27-25-41-40-41-45 0-2 1-4 2-6 2-3 6-8 12-15 5-7 10-13 13-17-4-9-8-17-10-24l-43-7c-2 0-4-1-5-2-2-2-2-4-2-6l0-53c0-2 0-4 2-5 1-2 3-3 4-3l45-7c2-7 5-14 9-22-7-9-15-20-26-33-1-2-2-4-2-6 0-2 1-4 2-5 4-6 12-14 23-26 12-11 19-17 23-17 2 0 4 1 6 2l33 26c6-3 14-6 22-9 2-21 4-35 6-44 2-5 5-7 9-7l53 0c2 0 4 1 6 2 2 2 3 3 3 5l6 44c7 2 14 5 22 9l33-26c2-1 4-2 6-2 2 0 4 1 6 3 28 25 41 40 41 45 0 2 0 4-2 6-2 3-6 8-12 15-5 8-10 13-13 17 5 10 8 17 10 24l44 6c1 1 3 2 4 3 2 2 2 4 2 6z m183 152l0 40c0 3-14 6-42 9-3 5-5 10-9 15 10 22 15 35 15 39 0 1-1 2-1 2-24 14-35 21-36 21-1 0-6-5-13-14-7-9-12-15-15-19-4 0-7 0-8 0-2 0-5 0-9 0-3 4-8 10-15 19-7 9-11 14-13 14 0 0-12-7-35-21-1 0-2-1-2-2 0-4 5-17 15-39-3-5-6-10-9-15-28-3-42-6-42-9l0-40c0-3 14-6 42-9 3-5 6-10 9-14-10-22-15-35-15-40 0-1 1-1 2-2 0 0 4-2 10-6 5-3 11-6 16-9 6-3 9-5 9-5 2 0 6 5 13 13 7 9 12 16 15 20 4-1 7-1 9-1 1 0 4 0 8 1 10-14 19-24 26-32l2-1c1 0 13 7 36 20 0 1 1 1 1 2 0 5-5 18-15 40 3 4 6 9 9 14 28 3 42 6 42 9z m0-292l0 40c0 3-14 6-42 9-3 5-5 10-9 14 10 22 15 35 15 40 0 1-1 1-1 2-24 13-35 20-36 20-1 0-6-4-13-13-7-9-12-16-15-20-4 1-7 1-8 1-2 0-5 0-9-1-3 4-8 11-15 20-7 9-11 13-13 13 0 0-12-7-35-20-1-1-2-1-2-2 0-5 5-18 15-40-3-4-6-9-9-14-28-3-42-6-42-9l0-40c0-3 14-6 42-9 3-6 6-11 9-15-10-22-15-35-15-39 0-1 1-2 2-2 0-1 4-3 10-6 5-4 11-7 16-10 6-3 9-4 9-4 2 0 6 4 13 13 7 9 12 15 15 19 4 0 7 0 9 0 1 0 4 0 8 0 10-13 19-24 26-32l2 0c1 0 13 6 36 20 0 0 1 1 1 2 0 4-5 17-15 39 3 4 6 9 9 15 28 3 42 6 42 9z"/>
    </symbol>
  
    <symbol id="icon-clock-o" viewBox="0 0 512 512">
      <path d="m293 155l0 128c0 3-1 5-3 7-2 2-4 3-7 3l-91 0c-3 0-5-1-7-3-1-2-2-4-2-7l0-18c0-3 1-5 2-6 2-2 4-3 7-3l64 0 0-101c0-2 1-4 3-6 1-2 3-3 6-3l18 0c3 0 5 1 7 3 2 2 3 4 3 6z m118 101c0-28-7-54-20-78-14-24-33-43-57-57-24-13-50-20-78-20-28 0-54 7-78 20-24 14-43 33-57 57-13 24-20 50-20 78 0 28 7 54 20 78 14 24 33 43 57 57 24 13 50 20 78 20 28 0 54-7 78-20 24-14 43-33 57-57 13-24 20-50 20-78z m64 0c0 40-9 77-29 110-20 34-46 60-80 80-33 20-70 29-110 29-40 0-77-9-110-29-34-20-60-46-80-80-20-33-29-70-29-110 0-40 9-77 29-110 20-34 46-60 80-80 33-20 70-29 110-29 40 0 77 9 110 29 34 20 60 46 80 80 20 33 29 70 29 110z"/>
    </symbol>
  
    <symbol id="icon-comment-o" viewBox="0 0 512 512">
      <path d="m256 110c-39 0-75 6-109 20-34 13-61 31-81 53-19 23-29 47-29 73 0 21 6 42 20 61 14 19 33 36 58 50l24 14-7 28c-5 17-12 34-20 49 29-12 55-28 78-49l13-11 16 2c13 2 25 2 37 2 39 0 75-6 109-20 34-13 61-31 81-53 19-23 29-47 29-73 0-26-10-50-29-73-20-22-47-40-81-53-34-14-70-20-109-20z m256 146c0 33-11 64-34 92-23 28-54 50-93 66-40 17-83 25-129 25-13 0-27-1-41-2-38 33-82 56-132 69-9 2-20 4-32 6l-2 0c-3 0-5-1-8-3-2-2-3-5-4-8l0 0c-1-1-1-2 0-4 0-1 0-2 0-2 0-1 1-2 2-3l1-3 2-2 3-3c1-1 4-5 8-10 5-5 8-8 10-10 2-3 5-6 9-12 4-5 7-10 9-14 3-5 5-10 8-17 3-7 5-14 8-22-30-17-54-38-71-63-17-25-26-51-26-80 0-33 11-64 34-92 23-28 54-50 93-66 40-17 83-25 129-25 46 0 89 8 129 25 39 16 70 38 93 66 23 28 34 59 34 92z"/>
    </symbol>
  
    <symbol id="icon-database" viewBox="0 0 512 512">
      <path d="m256 219c45 0 87-4 127-12 39-8 70-20 92-36l0 48c0 14-9 26-29 37-20 11-46 20-80 27-34 6-70 10-110 10-40 0-76-4-110-10-34-7-60-16-80-27-20-11-29-23-29-37l0-48c22 16 53 28 92 36 40 8 82 12 127 12z m0 220c45 0 87-4 127-12 39-9 70-21 92-37l0 49c0 13-9 25-29 36-20 12-46 21-80 27-34 7-70 10-110 10-40 0-76-3-110-10-34-6-60-15-80-27-20-11-29-23-29-36l0-49c22 16 53 28 92 37 40 8 82 12 127 12z m0-110c45 0 87-4 127-12 39-8 70-20 92-36l0 48c0 13-9 25-29 37-20 11-46 20-80 26-34 7-70 10-110 10-40 0-76-3-110-10-34-6-60-15-80-26-20-12-29-24-29-37l0-48c22 16 53 28 92 36 40 8 82 12 127 12z m0-329c40 0 76 3 110 10 34 6 60 15 80 27 20 11 29 23 29 36l0 37c0 13-9 25-29 36-20 12-46 20-80 27-34 7-70 10-110 10-40 0-76-3-110-10-34-7-60-15-80-27-20-11-29-23-29-36l0-37c0-13 9-25 29-36 20-12 46-21 80-27 34-7 70-10 110-10z"/>
    </symbol>
  
    <symbol id="icon-delicious" viewBox="0 0 512 512">
      <path d="m457 393l0-137-201 0 0-201-137 0c-18 0-33 6-45 19-13 12-19 27-19 45l0 137 201 0 0 201 137 0c18 0 33-6 45-19 13-12 19-27 19-45z m18-274l0 274c0 23-8 42-24 58-16 16-35 24-58 24l-274 0c-23 0-42-8-58-24-16-16-24-35-24-58l0-274c0-23 8-42 24-58 16-16 35-24 58-24l274 0c23 0 42 8 58 24 16 16 24 35 24 58z"/>
    </symbol>
  
</svg>
